<svg id="visual" viewBox="0 0 960 540" width="960" height="540" xmlns="http://www.w3.org/2000/svg" xmlns:xlink="http://www.w3.org/1999/xlink" version="1.1"><rect x="0" y="0" width="960" height="540" fill="#001220"></rect><defs><linearGradient id="grad1_0" x1="43.8%" y1="100%" x2="100%" y2="0%"><stop offset="14.444444444444446%" stop-color="#001220" stop-opacity="1"></stop><stop offset="85.55555555555554%" stop-color="#001220" stop-opacity="1"></stop></linearGradient></defs><defs><linearGradient id="grad2_0" x1="0%" y1="100%" x2="56.3%" y2="0%"><stop offset="14.444444444444446%" stop-color="#001220" stop-opacity="1"></stop><stop offset="85.55555555555554%" stop-color="#001220" stop-opacity="1"></stop></linearGradient></defs><g transform="translate(960, 540)"><path d="M-432 0C-419.8 -35 -407.5 -69.9 -400.9 -107.4C-394.2 -144.9 -393.1 -184.9 -374.1 -216C-355.1 -247.1 -318.1 -269.4 -282.1 -282.1C-246.2 -294.9 -211.2 -298.2 -183.5 -317.8C-155.8 -337.4 -135.2 -373.3 -105.9 -395.1C-76.5 -416.8 -38.2 -424.4 0 -432L0 0Z" fill="#F7CACA"></path></g><g transform="translate(0, 0)"><path d="M432 0C407.1 32.7 382.3 65.4 371.9 99.6C361.5 133.9 365.6 169.6 359.4 207.5C353.2 245.4 336.8 285.6 305.5 305.5C274.1 325.3 227.9 324.9 192 332.6C156.1 340.2 130.4 355.9 100.2 373.8C69.9 391.7 34.9 411.9 0 432L0 0Z" fill="#F7CACA"></path></g></svg>