<svg id="visual" viewBox="0 0 960 540" width="960" height="540" xmlns="http://www.w3.org/2000/svg" xmlns:xlink="http://www.w3.org/1999/xlink" version="1.1"><g stroke-width="1" stroke-linejoin="bevel"><path d="M496 239.4L488 317.6L525 254.4Z" fill="#3b214a" stroke="#3b214a"></path><path d="M496 239.4L435 228.4L488 317.6Z" fill="#ff1cc1" stroke="#ff1cc1"></path><path d="M488 317.6L560 325.6L525 254.4Z" fill="#792e7e" stroke="#792e7e"></path><path d="M488 317.6L537 348.7L560 325.6Z" fill="#91308e" stroke="#91308e"></path><path d="M435 228.4L416 351.7L488 317.6Z" fill="#ff1cc1" stroke="#ff1cc1"></path><path d="M488 317.6L454 379.7L537 348.7Z" fill="#91308e" stroke="#91308e"></path><path d="M416 351.7L454 379.7L488 317.6Z" fill="#2b1b37" stroke="#2b1b37"></path><path d="M597 148.3L476 161.3L496 239.4Z" fill="#ab309d" stroke="#ab309d"></path><path d="M496 239.4L476 161.3L435 228.4Z" fill="#2b1b37" stroke="#2b1b37"></path><path d="M435 228.4L378 341.6L416 351.7Z" fill="#4e265c" stroke="#4e265c"></path><path d="M348 463.9L468 426.9L454 379.7Z" fill="#e228b6" stroke="#e228b6"></path><path d="M435 228.4L354 315.6L378 341.6Z" fill="#91308e" stroke="#91308e"></path><path d="M335 254.4L354 315.6L435 228.4Z" fill="#e228b6" stroke="#e228b6"></path><path d="M649 358.7L641 302.6L560 325.6Z" fill="#91308e" stroke="#91308e"></path><path d="M560 325.6L641 302.6L525 254.4Z" fill="#e228b6" stroke="#e228b6"></path><path d="M525 254.4L597 148.3L496 239.4Z" fill="#3b214a" stroke="#3b214a"></path><path d="M348 463.9L454 379.7L416 351.7Z" fill="#3b214a" stroke="#3b214a"></path><path d="M454 379.7L468 426.9L537 348.7Z" fill="#e228b6" stroke="#e228b6"></path><path d="M537 348.7L649 358.7L560 325.6Z" fill="#ff1cc1" stroke="#ff1cc1"></path><path d="M641 302.6L651 252.4L525 254.4Z" fill="#632b6d" stroke="#632b6d"></path><path d="M380 156.3L335 254.4L435 228.4Z" fill="#632b6d" stroke="#632b6d"></path><path d="M651 252.4L597 148.3L525 254.4Z" fill="#632b6d" stroke="#632b6d"></path><path d="M395 86.1L380 156.3L476 161.3Z" fill="#632b6d" stroke="#632b6d"></path><path d="M476 161.3L380 156.3L435 228.4Z" fill="#e228b6" stroke="#e228b6"></path><path d="M565 465.9L649 358.7L537 348.7Z" fill="#ff1cc1" stroke="#ff1cc1"></path><path d="M641 302.6L681 286.6L651 252.4Z" fill="#3b214a" stroke="#3b214a"></path><path d="M649 358.7L681 286.6L641 302.6Z" fill="#e228b6" stroke="#e228b6"></path><path d="M651 252.4L628 144.3L597 148.3Z" fill="#3b214a" stroke="#3b214a"></path><path d="M710 223.4L628 144.3L651 252.4Z" fill="#2b1b37" stroke="#2b1b37"></path><path d="M597 148.3L511 87.1L476 161.3Z" fill="#792e7e" stroke="#792e7e"></path><path d="M567 47.1L511 87.1L597 148.3Z" fill="#1c1425" stroke="#1c1425"></path><path d="M468 426.9L565 465.9L537 348.7Z" fill="#4e265c" stroke="#4e265c"></path><path d="M395 86.1L318 172.3L380 156.3Z" fill="#ff1cc1" stroke="#ff1cc1"></path><path d="M380 156.3L318 172.3L335 254.4Z" fill="#1c1425" stroke="#1c1425"></path><path d="M511 87.1L395 86.1L476 161.3Z" fill="#91308e" stroke="#91308e"></path><path d="M681 286.6L710 223.4L651 252.4Z" fill="#4e265c" stroke="#4e265c"></path><path d="M837 317.6L710 223.4L681 286.6Z" fill="#c62daa" stroke="#c62daa"></path><path d="M565 465.9L609 469.9L649 358.7Z" fill="#3b214a" stroke="#3b214a"></path><path d="M649 358.7L734 396.7L681 286.6Z" fill="#c62daa" stroke="#c62daa"></path><path d="M354 315.6L301 403.7L378 341.6Z" fill="#792e7e" stroke="#792e7e"></path><path d="M378 341.6L348 463.9L416 351.7Z" fill="#91308e" stroke="#91308e"></path><path d="M335 254.4L265 285.6L354 315.6Z" fill="#3b214a" stroke="#3b214a"></path><path d="M247 197.4L265 285.6L335 254.4Z" fill="#ff1cc1" stroke="#ff1cc1"></path><path d="M273 382.7L301 403.7L354 315.6Z" fill="#792e7e" stroke="#792e7e"></path><path d="M468 426.9L527 540L565 465.9Z" fill="#c62daa" stroke="#c62daa"></path><path d="M301 403.7L348 463.9L378 341.6Z" fill="#3b214a" stroke="#3b214a"></path><path d="M565 465.9L527 540L609 469.9Z" fill="#3b214a" stroke="#3b214a"></path><path d="M348 463.9L373 488.9L468 426.9Z" fill="#ab309d" stroke="#ab309d"></path><path d="M677 97.1L567 47.1L628 144.3Z" fill="#4e265c" stroke="#4e265c"></path><path d="M628 144.3L567 47.1L597 148.3Z" fill="#ff1cc1" stroke="#ff1cc1"></path><path d="M511 87.1L446 0L395 86.1Z" fill="#4e265c" stroke="#4e265c"></path><path d="M265 285.6L273 382.7L354 315.6Z" fill="#632b6d" stroke="#632b6d"></path><path d="M301 403.7L273 456.9L348 463.9Z" fill="#c62daa" stroke="#c62daa"></path><path d="M735 123.3L677 97.1L628 144.3Z" fill="#632b6d" stroke="#632b6d"></path><path d="M270 105.1L247 197.4L318 172.3Z" fill="#792e7e" stroke="#792e7e"></path><path d="M318 172.3L247 197.4L335 254.4Z" fill="#e228b6" stroke="#e228b6"></path><path d="M265 285.6L164 317.6L273 382.7Z" fill="#3b214a" stroke="#3b214a"></path><path d="M373 488.9L466 540L468 426.9Z" fill="#c62daa" stroke="#c62daa"></path><path d="M466 540L527 540L468 426.9Z" fill="#632b6d" stroke="#632b6d"></path><path d="M745 496.9L734 396.7L609 469.9Z" fill="#1c1425" stroke="#1c1425"></path><path d="M609 469.9L734 396.7L649 358.7Z" fill="#1c1425" stroke="#1c1425"></path><path d="M735 123.3L628 144.3L710 223.4Z" fill="#4e265c" stroke="#4e265c"></path><path d="M735 123.3L693 90.1L677 97.1Z" fill="#792e7e" stroke="#792e7e"></path><path d="M677 97.1L592 0L567 47.1Z" fill="#ab309d" stroke="#ab309d"></path><path d="M592 0L446 0L567 47.1Z" fill="#1c1425" stroke="#1c1425"></path><path d="M567 47.1L446 0L511 87.1Z" fill="#2b1b37" stroke="#2b1b37"></path><path d="M395 86.1L270 105.1L318 172.3Z" fill="#c62daa" stroke="#c62daa"></path><path d="M305 49.1L270 105.1L395 86.1Z" fill="#e228b6" stroke="#e228b6"></path><path d="M329 540L364 540L373 488.9Z" fill="#2b1b37" stroke="#2b1b37"></path><path d="M373 488.9L364 540L466 540Z" fill="#91308e" stroke="#91308e"></path><path d="M273 382.7L273 456.9L301 403.7Z" fill="#2b1b37" stroke="#2b1b37"></path><path d="M178 447.9L273 456.9L273 382.7Z" fill="#e228b6" stroke="#e228b6"></path><path d="M786 148.3L735 123.3L710 223.4Z" fill="#2b1b37" stroke="#2b1b37"></path><path d="M329 540L373 488.9L348 463.9Z" fill="#1c1425" stroke="#1c1425"></path><path d="M677 0L677 97.1L693 90.1Z" fill="#4e265c" stroke="#4e265c"></path><path d="M677 0L592 0L677 97.1Z" fill="#ab309d" stroke="#ab309d"></path><path d="M365 0L305 49.1L395 86.1Z" fill="#792e7e" stroke="#792e7e"></path><path d="M527 540L642 540L609 469.9Z" fill="#ff1cc1" stroke="#ff1cc1"></path><path d="M270 105.1L223 143.3L247 197.4Z" fill="#4e265c" stroke="#4e265c"></path><path d="M247 197.4L198 192.4L265 285.6Z" fill="#2b1b37" stroke="#2b1b37"></path><path d="M135 40.1L223 143.3L270 105.1Z" fill="#1c1425" stroke="#1c1425"></path><path d="M446 0L365 0L395 86.1Z" fill="#632b6d" stroke="#632b6d"></path><path d="M223 143.3L198 192.4L247 197.4Z" fill="#632b6d" stroke="#632b6d"></path><path d="M273 456.9L329 540L348 463.9Z" fill="#1c1425" stroke="#1c1425"></path><path d="M365 0L348 0L305 49.1Z" fill="#1c1425" stroke="#1c1425"></path><path d="M768 485.9L789 397.7L734 396.7Z" fill="#792e7e" stroke="#792e7e"></path><path d="M734 396.7L837 317.6L681 286.6Z" fill="#3b214a" stroke="#3b214a"></path><path d="M832 200.4L786 148.3L710 223.4Z" fill="#c62daa" stroke="#c62daa"></path><path d="M725 0L677 0L693 90.1Z" fill="#1c1425" stroke="#1c1425"></path><path d="M198 192.4L164 317.6L265 285.6Z" fill="#792e7e" stroke="#792e7e"></path><path d="M273 456.9L264 540L329 540Z" fill="#ab309d" stroke="#ab309d"></path><path d="M642 540L745 496.9L609 469.9Z" fill="#91308e" stroke="#91308e"></path><path d="M725 0L693 90.1L735 123.3Z" fill="#e228b6" stroke="#e228b6"></path><path d="M745 496.9L768 485.9L734 396.7Z" fill="#3b214a" stroke="#3b214a"></path><path d="M895 289.6L837 317.6L909 378.7Z" fill="#3b214a" stroke="#3b214a"></path><path d="M789 397.7L837 317.6L734 396.7Z" fill="#91308e" stroke="#91308e"></path><path d="M837 317.6L832 200.4L710 223.4Z" fill="#2b1b37" stroke="#2b1b37"></path><path d="M786 148.3L799 113.1L735 123.3Z" fill="#e228b6" stroke="#e228b6"></path><path d="M846 192.3L799 113.1L786 148.3Z" fill="#e228b6" stroke="#e228b6"></path><path d="M745 496.9L782 540L768 485.9Z" fill="#1c1425" stroke="#1c1425"></path><path d="M642 540L723 540L745 496.9Z" fill="#e228b6" stroke="#e228b6"></path><path d="M181 540L264 540L273 456.9Z" fill="#e228b6" stroke="#e228b6"></path><path d="M348 0L278 0L305 49.1Z" fill="#2b1b37" stroke="#2b1b37"></path><path d="M305 49.1L278 0L270 105.1Z" fill="#ab309d" stroke="#ab309d"></path><path d="M223 143.3L137 150.3L198 192.4Z" fill="#792e7e" stroke="#792e7e"></path><path d="M164 317.6L178 447.9L273 382.7Z" fill="#ab309d" stroke="#ab309d"></path><path d="M837 317.6L848 206.4L832 200.4Z" fill="#e228b6" stroke="#e228b6"></path><path d="M832 200.4L846 192.3L786 148.3Z" fill="#632b6d" stroke="#632b6d"></path><path d="M778 0L725 0L735 123.3Z" fill="#ab309d" stroke="#ab309d"></path><path d="M848 206.4L846 192.3L832 200.4Z" fill="#ff1cc1" stroke="#ff1cc1"></path><path d="M135 40.1L137 150.3L223 143.3Z" fill="#2b1b37" stroke="#2b1b37"></path><path d="M198 192.4L111 271.6L164 317.6Z" fill="#ff1cc1" stroke="#ff1cc1"></path><path d="M164 317.6L127 405.7L178 447.9Z" fill="#c62daa" stroke="#c62daa"></path><path d="M137 150.3L111 271.6L198 192.4Z" fill="#4e265c" stroke="#4e265c"></path><path d="M111 271.6L127 405.7L164 317.6Z" fill="#ff1cc1" stroke="#ff1cc1"></path><path d="M178 447.9L181 540L273 456.9Z" fill="#ff1cc1" stroke="#ff1cc1"></path><path d="M723 540L782 540L745 496.9Z" fill="#2b1b37" stroke="#2b1b37"></path><path d="M768 485.9L883 430.9L789 397.7Z" fill="#632b6d" stroke="#632b6d"></path><path d="M884 0L778 0L799 113.1Z" fill="#ff1cc1" stroke="#ff1cc1"></path><path d="M799 113.1L778 0L735 123.3Z" fill="#792e7e" stroke="#792e7e"></path><path d="M837 317.6L895 289.6L848 206.4Z" fill="#4e265c" stroke="#4e265c"></path><path d="M960 136.3L885 105.1L846 192.3Z" fill="#c62daa" stroke="#c62daa"></path><path d="M846 192.3L885 105.1L799 113.1Z" fill="#ff1cc1" stroke="#ff1cc1"></path><path d="M909 378.7L837 317.6L789 397.7Z" fill="#ab309d" stroke="#ab309d"></path><path d="M112 472.9L181 540L178 447.9Z" fill="#2b1b37" stroke="#2b1b37"></path><path d="M0 365.7L109 419.7L127 405.7Z" fill="#1c1425" stroke="#1c1425"></path><path d="M127 405.7L109 419.7L178 447.9Z" fill="#3b214a" stroke="#3b214a"></path><path d="M782 540L883 430.9L768 485.9Z" fill="#792e7e" stroke="#792e7e"></path><path d="M137 150.3L56 204.4L111 271.6Z" fill="#ff1cc1" stroke="#ff1cc1"></path><path d="M111 271.6L0 365.7L127 405.7Z" fill="#792e7e" stroke="#792e7e"></path><path d="M135 40.1L95 129.3L137 150.3Z" fill="#ff1cc1" stroke="#ff1cc1"></path><path d="M883 430.9L909 378.7L789 397.7Z" fill="#632b6d" stroke="#632b6d"></path><path d="M960 228.4L848 206.4L895 289.6Z" fill="#3b214a" stroke="#3b214a"></path><path d="M960 228.4L846 192.3L848 206.4Z" fill="#632b6d" stroke="#632b6d"></path><path d="M109 419.7L112 472.9L178 447.9Z" fill="#792e7e" stroke="#792e7e"></path><path d="M278 0L135 40.1L270 105.1Z" fill="#e228b6" stroke="#e228b6"></path><path d="M0 229.4L56 204.4L0 134.3Z" fill="#3b214a" stroke="#3b214a"></path><path d="M95 129.3L56 204.4L137 150.3Z" fill="#91308e" stroke="#91308e"></path><path d="M0 483.9L110 540L112 472.9Z" fill="#4e265c" stroke="#4e265c"></path><path d="M278 0L147 0L135 40.1Z" fill="#91308e" stroke="#91308e"></path><path d="M135 40.1L53 44.1L95 129.3Z" fill="#ff1cc1" stroke="#ff1cc1"></path><path d="M112 472.9L110 540L181 540Z" fill="#c62daa" stroke="#c62daa"></path><path d="M0 483.9L112 472.9L109 419.7Z" fill="#632b6d" stroke="#632b6d"></path><path d="M960 392.7L960 282.6L909 378.7Z" fill="#4e265c" stroke="#4e265c"></path><path d="M909 378.7L960 282.6L895 289.6Z" fill="#91308e" stroke="#91308e"></path><path d="M960 282.6L960 228.4L895 289.6Z" fill="#3b214a" stroke="#3b214a"></path><path d="M960 73.1L884 0L885 105.1Z" fill="#c62daa" stroke="#c62daa"></path><path d="M885 105.1L884 0L799 113.1Z" fill="#792e7e" stroke="#792e7e"></path><path d="M960 443.9L909 378.7L883 430.9Z" fill="#c62daa" stroke="#c62daa"></path><path d="M960 443.9L960 392.7L909 378.7Z" fill="#4e265c" stroke="#4e265c"></path><path d="M960 228.4L960 136.3L846 192.3Z" fill="#2b1b37" stroke="#2b1b37"></path><path d="M782 540L908 540L883 430.9Z" fill="#ff1cc1" stroke="#ff1cc1"></path><path d="M147 0L86 0L135 40.1Z" fill="#2b1b37" stroke="#2b1b37"></path><path d="M908 540L960 443.9L883 430.9Z" fill="#3b214a" stroke="#3b214a"></path><path d="M0 229.4L111 271.6L56 204.4Z" fill="#3b214a" stroke="#3b214a"></path><path d="M0 229.4L0 313.6L111 271.6Z" fill="#1c1425" stroke="#1c1425"></path><path d="M0 134.3L56 204.4L95 129.3Z" fill="#ab309d" stroke="#ab309d"></path><path d="M86 0L53 44.1L135 40.1Z" fill="#ab309d" stroke="#ab309d"></path><path d="M0 313.6L0 365.7L111 271.6Z" fill="#ab309d" stroke="#ab309d"></path><path d="M960 136.3L960 73.1L885 105.1Z" fill="#2b1b37" stroke="#2b1b37"></path><path d="M0 114.1L0 134.3L95 129.3Z" fill="#e228b6" stroke="#e228b6"></path><path d="M0 0L0 114.1L53 44.1Z" fill="#c62daa" stroke="#c62daa"></path><path d="M53 44.1L0 114.1L95 129.3Z" fill="#792e7e" stroke="#792e7e"></path><path d="M908 540L960 540L960 443.9Z" fill="#1c1425" stroke="#1c1425"></path><path d="M0 365.7L0 483.9L109 419.7Z" fill="#c62daa" stroke="#c62daa"></path><path d="M960 73.1L960 0L884 0Z" fill="#91308e" stroke="#91308e"></path><path d="M0 483.9L0 540L110 540Z" fill="#632b6d" stroke="#632b6d"></path><path d="M86 0L0 0L53 44.1Z" fill="#2b1b37" stroke="#2b1b37"></path></g></svg>