<svg id="visual" viewBox="0 0 960 540" width="960" height="540" xmlns="http://www.w3.org/2000/svg" xmlns:xlink="http://www.w3.org/1999/xlink" version="1.1"><rect x="0" y="0" width="960" height="540" fill="#ffffff"></rect><path d="M0 324L17.8 328C35.7 332 71.3 340 106.8 339.7C142.3 339.3 177.7 330.7 213.2 325.5C248.7 320.3 284.3 318.7 320 335.3C355.7 352 391.3 387 426.8 384.8C462.3 382.7 497.7 343.3 533.2 328C568.7 312.7 604.3 321.3 640 332.5C675.7 343.7 711.3 357.3 746.8 363.7C782.3 370 817.7 369 853.2 372.5C888.7 376 924.3 384 942.2 388L960 392L960 541L942.2 541C924.3 541 888.7 541 853.2 541C817.7 541 782.3 541 746.8 541C711.3 541 675.7 541 640 541C604.3 541 568.7 541 533.2 541C497.7 541 462.3 541 426.8 541C391.3 541 355.7 541 320 541C284.3 541 248.7 541 213.2 541C177.7 541 142.3 541 106.8 541C71.3 541 35.7 541 17.8 541L0 541Z" fill="#767f88"></path><path d="M0 427L17.8 426.3C35.7 425.7 71.3 424.3 106.8 418.3C142.3 412.3 177.7 401.7 213.2 392.2C248.7 382.7 284.3 374.3 320 378.3C355.7 382.3 391.3 398.7 426.8 412.7C462.3 426.7 497.7 438.3 533.2 436.5C568.7 434.7 604.3 419.3 640 417.8C675.7 416.3 711.3 428.7 746.8 428.7C782.3 428.7 817.7 416.3 853.2 417.2C888.7 418 924.3 432 942.2 439L960 446L960 541L942.2 541C924.3 541 888.7 541 853.2 541C817.7 541 782.3 541 746.8 541C711.3 541 675.7 541 640 541C604.3 541 568.7 541 533.2 541C497.7 541 462.3 541 426.8 541C391.3 541 355.7 541 320 541C284.3 541 248.7 541 213.2 541C177.7 541 142.3 541 106.8 541C71.3 541 35.7 541 17.8 541L0 541Z" fill="#636b72"></path><path d="M0 382L17.8 386.5C35.7 391 71.3 400 106.8 412.7C142.3 425.3 177.7 441.7 213.2 432.5C248.7 423.3 284.3 388.7 320 387.2C355.7 385.7 391.3 417.3 426.8 436.3C462.3 455.3 497.7 461.7 533.2 450.3C568.7 439 604.3 410 640 393.8C675.7 377.7 711.3 374.3 746.8 380.5C782.3 386.7 817.7 402.3 853.2 398.8C888.7 395.3 924.3 372.7 942.2 361.3L960 350L960 541L942.2 541C924.3 541 888.7 541 853.2 541C817.7 541 782.3 541 746.8 541C711.3 541 675.7 541 640 541C604.3 541 568.7 541 533.2 541C497.7 541 462.3 541 426.8 541C391.3 541 355.7 541 320 541C284.3 541 248.7 541 213.2 541C177.7 541 142.3 541 106.8 541C71.3 541 35.7 541 17.8 541L0 541Z" fill="#52585d"></path><path d="M0 461L17.8 463.3C35.7 465.7 71.3 470.3 106.8 460C142.3 449.7 177.7 424.3 213.2 412.3C248.7 400.3 284.3 401.7 320 410.5C355.7 419.3 391.3 435.7 426.8 443.5C462.3 451.3 497.7 450.7 533.2 455.3C568.7 460 604.3 470 640 467.7C675.7 465.3 711.3 450.7 746.8 450.3C782.3 450 817.7 464 853.2 471C888.7 478 924.3 478 942.2 478L960 478L960 541L942.2 541C924.3 541 888.7 541 853.2 541C817.7 541 782.3 541 746.8 541C711.3 541 675.7 541 640 541C604.3 541 568.7 541 533.2 541C497.7 541 462.3 541 426.8 541C391.3 541 355.7 541 320 541C284.3 541 248.7 541 213.2 541C177.7 541 142.3 541 106.8 541C71.3 541 35.7 541 17.8 541L0 541Z" fill="#414649"></path><path d="M0 448L17.8 452.5C35.7 457 71.3 466 106.8 465.2C142.3 464.3 177.7 453.7 213.2 449.7C248.7 445.7 284.3 448.3 320 447C355.7 445.7 391.3 440.3 426.8 445.5C462.3 450.7 497.7 466.3 533.2 465.5C568.7 464.7 604.3 447.3 640 449.7C675.7 452 711.3 474 746.8 474C782.3 474 817.7 452 853.2 448.8C888.7 445.7 924.3 461.3 942.2 469.2L960 477L960 541L942.2 541C924.3 541 888.7 541 853.2 541C817.7 541 782.3 541 746.8 541C711.3 541 675.7 541 640 541C604.3 541 568.7 541 533.2 541C497.7 541 462.3 541 426.8 541C391.3 541 355.7 541 320 541C284.3 541 248.7 541 213.2 541C177.7 541 142.3 541 106.8 541C71.3 541 35.7 541 17.8 541L0 541Z" fill="#303436"></path><path d="M0 487L17.8 484.2C35.7 481.3 71.3 475.7 106.8 472C142.3 468.3 177.7 466.7 213.2 473.2C248.7 479.7 284.3 494.3 320 498C355.7 501.7 391.3 494.3 426.8 489.3C462.3 484.3 497.7 481.7 533.2 478.2C568.7 474.7 604.3 470.3 640 475.5C675.7 480.7 711.3 495.3 746.8 501.5C782.3 507.7 817.7 505.3 853.2 503C888.7 500.7 924.3 498.3 942.2 497.2L960 496L960 541L942.2 541C924.3 541 888.7 541 853.2 541C817.7 541 782.3 541 746.8 541C711.3 541 675.7 541 640 541C604.3 541 568.7 541 533.2 541C497.7 541 462.3 541 426.8 541C391.3 541 355.7 541 320 541C284.3 541 248.7 541 213.2 541C177.7 541 142.3 541 106.8 541C71.3 541 35.7 541 17.8 541L0 541Z" fill="#212324"></path></svg>