<svg id="visual" viewBox="0 0 960 540" width="960" height="540" xmlns="http://www.w3.org/2000/svg" xmlns:xlink="http://www.w3.org/1999/xlink" version="1.1"><rect x="0" y="0" width="960" height="540" fill="#ffffff"></rect><path d="M0 448L20 437.5C40 427 80 406 120 393.7C160 381.3 200 377.7 240 375.3C280 373 320 372 360 376.5C400 381 440 391 480 400.3C520 409.7 560 418.3 600 404.8C640 391.3 680 355.7 720 344.3C760 333 800 346 840 355.5C880 365 920 371 940 374L960 377L960 541L940 541C920 541 880 541 840 541C800 541 760 541 720 541C680 541 640 541 600 541C560 541 520 541 480 541C440 541 400 541 360 541C320 541 280 541 240 541C200 541 160 541 120 541C80 541 40 541 20 541L0 541Z" fill="#4facf7"></path><path d="M0 453L20 440.5C40 428 80 403 120 388.2C160 373.3 200 368.7 240 374.2C280 379.7 320 395.3 360 407.5C400 419.7 440 428.3 480 429.3C520 430.3 560 423.7 600 414.5C640 405.3 680 393.7 720 398.3C760 403 800 424 840 436C880 448 920 451 940 452.5L960 454L960 541L940 541C920 541 880 541 840 541C800 541 760 541 720 541C680 541 640 541 600 541C560 541 520 541 480 541C440 541 400 541 360 541C320 541 280 541 240 541C200 541 160 541 120 541C80 541 40 541 20 541L0 541Z" fill="#4892d8"></path><path d="M0 383L20 383.3C40 383.7 80 384.3 120 392.5C160 400.7 200 416.3 240 420.8C280 425.3 320 418.7 360 408.7C400 398.7 440 385.3 480 382.2C520 379 560 386 600 396.8C640 407.7 680 422.3 720 432.2C760 442 800 447 840 436.7C880 426.3 920 400.7 940 387.8L960 375L960 541L940 541C920 541 880 541 840 541C800 541 760 541 720 541C680 541 640 541 600 541C560 541 520 541 480 541C440 541 400 541 360 541C320 541 280 541 240 541C200 541 160 541 120 541C80 541 40 541 20 541L0 541Z" fill="#417aba"></path><path d="M0 452L20 446.7C40 441.3 80 430.7 120 433.3C160 436 200 452 240 462.8C280 473.7 320 479.3 360 480.8C400 482.3 440 479.7 480 479.7C520 479.7 560 482.3 600 474.2C640 466 680 447 720 437.8C760 428.7 800 429.3 840 440.5C880 451.7 920 473.3 940 484.2L960 495L960 541L940 541C920 541 880 541 840 541C800 541 760 541 720 541C680 541 640 541 600 541C560 541 520 541 480 541C440 541 400 541 360 541C320 541 280 541 240 541C200 541 160 541 120 541C80 541 40 541 20 541L0 541Z" fill="#37629c"></path><path d="M0 481L20 475.5C40 470 80 459 120 460.8C160 462.7 200 477.3 240 483.5C280 489.7 320 487.3 360 488.2C400 489 440 493 480 484.8C520 476.7 560 456.3 600 457.5C640 458.7 680 481.3 720 490.7C760 500 800 496 840 491C880 486 920 480 940 477L960 474L960 541L940 541C920 541 880 541 840 541C800 541 760 541 720 541C680 541 640 541 600 541C560 541 520 541 480 541C440 541 400 541 360 541C320 541 280 541 240 541C200 541 160 541 120 541C80 541 40 541 20 541L0 541Z" fill="#2d4c7f"></path><path d="M0 516L20 517.2C40 518.3 80 520.7 120 515.2C160 509.7 200 496.3 240 493.8C280 491.3 320 499.7 360 507.5C400 515.3 440 522.7 480 517.2C520 511.7 560 493.3 600 490.7C640 488 680 501 720 504.8C760 508.7 800 503.3 840 505C880 506.7 920 515.3 940 519.7L960 524L960 541L940 541C920 541 880 541 840 541C800 541 760 541 720 541C680 541 640 541 600 541C560 541 520 541 480 541C440 541 400 541 360 541C320 541 280 541 240 541C200 541 160 541 120 541C80 541 40 541 20 541L0 541Z" fill="#213763"></path></svg>